<?xml version="1.0" encoding="utf-8"?>
<!-- Generator: Adobe Illustrator 25.2.0, SVG Export Plug-In . SVG Version: 6.00 Build 0)  -->
<svg version="1.1" id="Layer_1"
  xmlns="http://www.w3.org/2000/svg"
  xmlns:xlink="http://www.w3.org/1999/xlink" x="0px" y="0px" viewBox="0 0 153.9 58.6" style="enable-background:new 0 0 153.9 58.6;" xml:space="preserve">
  <style type="text/css">
	.st0{fill:#8C3342;}
	.st1{opacity:0.3;fill:#3E584E;enable-background:new    ;}
  </style>
  <g id="Group_1119" transform="translate(-209.464 -200.812)">
    <path id="Path_646" class="st0" d="M272.3,216.2l-14.8-14.8l-0.9,0.9l-0.8,0.9c0,0,4,3.9,7.6,7.6h-8.5l-2.5,2.6h13.5
		c1.3,1.3,2.3,2.3,2.9,2.9L272.3,216.2"/>
    <path id="Path_647" class="st0" d="M254.4,204.5l-11.7,11.7h3.5c2.3-2.3,7.3-7.4,9.9-9.9L254.4,204.5"/>
    <path id="Path_648" class="st1" d="M260.3,223.7l2.5-2.5h-13.6l-2.9-2.9h-3.5l14.9,14.9l1.8-1.8l-7.7-7.7H260.3"/>
    <path id="Path_649" class="st1" d="M268.8,218.3c-2.3,2.3-7.3,7.4-9.9,9.9l1.8,1.8l11.7-11.7H268.8"/>
    <path id="Path_650" class="st0" d="M228.1,244.9h-8.2l3.7-11L228.1,244.9 M210.2,258.1c1-0.1,2.4-0.1,4-0.1c1.9,0,3.5,0,4.9,0.1
		v-1.2h-0.9c-1.2,0-1.6-0.6-1.6-1.3c0.1-1,0.3-2,0.7-2.9l2.1-6.3h9.3l2.9,7.2c0.3,0.6,0.5,1.3,0.6,2c0,0.8-0.8,1.3-2,1.3h-1v1.2
		c1.5-0.1,3.4-0.1,5.5-0.1c2.1,0,3.9,0,5.4,0.1v-1.2h-0.8c-1.8,0-3.1-1.6-4-3.9l-10.3-24.5h-0.8l-9.2,24.1c-1.2,3.3-2.1,4.3-4.3,4.3
		h-0.5L210.2,258.1z"/>
    <path id="Path_651" class="st0" d="M252.3,252.6c0,0.6,0,1.3,0.1,1.9c-1.3,1-2.4,1.7-3.7,1.7c-1.7,0-3.1-1.3-3.2-2.9
		c0-1.8,1.8-2.6,2.6-2.9l4.2-1.7L252.3,252.6 M252.3,247.4l-5.6,2.2c-2.7,1-4.2,2-4.2,4.4c0,2.4,1.9,4.3,4.3,4.3c0.1,0,0.2,0,0.3,0
		c1.7,0,2.8-0.4,5.5-2.3c0.2,1.2,0.5,2.3,1,2.3c0.3,0,0.5-0.1,0.8-0.2l3.9-1.8v-1.1c-0.6,0.3-1.2,0.5-1.8,0.6c-0.6,0-1-0.4-1-2.6
		v-8.1c0-1.8-0.8-5.3-5.7-5.3c-1.4,0.2-2.6,0.7-3.8,1.5c-1.8,1-2.7,1.9-2.7,3.2c0.1,0.8,0.3,1.5,0.7,2.1l2.6-1.2
		c-0.3-0.6-0.5-1.2-0.6-1.8c0-1.2,2-2.2,3-2.2c2.4,0,3.4,2.4,3.4,4.6L252.3,247.4z"/>
    <path id="Path_652" class="st0" d="M259.8,256.9h0.7c1.8,0,2.1-0.5,2.1-2.8v-8.7c0-1.3-0.4-1.9-1.3-1.9c-0.5,0-1.1,0.2-1.6,0.4
		v-1.2c1.9-0.7,3.6-1.7,5.2-2.9h0.4v4.2h0.1c1.3-2.7,3-4.2,5.1-4.2c0.8,0,1.6,0.1,2.4,0.4v3.8h-0.6c-0.3-1.1-1.5-1.4-2.6-1.4
		c-1.6,0-4.1,1.2-4.1,5.1v7.2c0,1.8,0.2,2.1,1.8,2.1h0.8v1.2c-0.9,0-2.7-0.1-4-0.1c-1.4,0-3.1,0.1-4.4,0.1L259.8,256.9"/>
    <path id="Path_653" class="st0" d="M286.6,244.8h-0.8c-0.5-1.6-1.1-3.6-4.3-3.6c-2.5,0-3.4,1.6-3.4,2.7c0,1.6,1.5,2.5,3.1,3.2
		l2.2,1c1.3,0.6,3.8,1.7,3.8,4.8c0,2.9-2.2,5.5-6.5,5.5c-1.9,0-3.8-0.4-5.6-1c0.1-0.8,0.1-1.6,0.1-2.4c0-0.8,0-1.6-0.1-2.4h1.1
		c0.3,2.8,2,4.4,4.4,4.4c1.9,0,3.8-0.8,3.8-3c0-1.9-1.5-2.6-2.8-3.3l-3-1.5c-1-0.5-3.2-1.7-3.2-4.4c0-2,1.7-5,6.2-5
		c1.7,0,3.3,0.3,4.9,0.8L286.6,244.8"/>
    <path id="Path_654" class="st0" d="M289.4,229.2c2-0.8,4-1.8,5.9-2.9h0.4c-0.1,0.9-0.1,3.7-0.1,7.6v19.6c0,2.8,0.9,3.3,2.4,3.3h0.8
		v1.2c-1.5,0-3.4-0.1-4.7-0.1s-3.2,0.1-4.7,0.1v-1.2h0.8c1.4,0,2.4-0.5,2.4-3.3v-21.4c0-1.2-0.5-2-1.5-2c-0.6,0-1.2,0.2-1.7,0.4
		L289.4,229.2"/>
    <path id="Path_655" class="st0" d="M311.6,252.6c0,0.6,0,1.3,0.1,1.9c-1.3,1-2.4,1.7-3.7,1.7c-1.7,0-3.1-1.3-3.2-2.9
		c0-1.8,1.8-2.6,2.6-2.9l4.2-1.7L311.6,252.6 M311.6,247.4l-5.6,2.2c-2.7,1-4.2,2-4.2,4.4c0,2.4,1.9,4.3,4.3,4.3c0.1,0,0.2,0,0.3,0
		c1.7,0,2.8-0.4,5.5-2.3c0.2,1.2,0.5,2.3,1,2.3c0.3,0,0.5-0.1,0.8-0.2l3.9-1.8v-1.1c-0.6,0.3-1.2,0.5-1.8,0.6c-0.6,0-1-0.4-1-2.6
		v-8.1c0-1.8-0.8-5.3-5.7-5.3c-1.4,0.2-2.6,0.7-3.8,1.5c-1.8,1-2.7,1.9-2.7,3.2c0.1,0.8,0.3,1.5,0.7,2.1l2.6-1.2
		c-0.3-0.6-0.5-1.2-0.6-1.8c0-1.2,2-2.2,3-2.2c2.4,0,3.4,2.4,3.4,4.6L311.6,247.4z"/>
    <path id="Path_656" class="st0" d="M319.1,256.9h0.7c1.8,0,2.1-0.5,2.1-2.8v-6.8c0-3.6-0.5-4.2-1.4-4.2c-0.5,0-1,0.2-1.4,0.4v-1.2
		c1.8-0.6,3.6-1.5,5.2-2.5h0.4v3.5c1.5-1.6,3.5-3.5,6.1-3.5c2.1,0.1,3.9,1.2,4.9,3c0.7,1.5,1,3.2,0.9,4.8v7.2c0,1.6,0.3,2,2.2,2h0.6
		v1.2c-1,0-2.8-0.1-4.1-0.1c-1.4,0-3.3,0.1-4.4,0.1v-1.2h0.7c1.7,0,1.9-0.8,1.9-3.3v-6.3c0-2.2-0.2-3.2-1.3-4.3
		c-0.8-0.7-1.8-1-2.8-1c-1.7,0-3.6,1.5-4.5,2.4v10.3c0,1.8,0.2,2.1,1.8,2.1h0.8v1.2c-0.9,0-2.7-0.1-4-0.1c-1.4,0-3.1,0.1-4.4,0.1
		L319.1,256.9"/>
    <path id="Path_657" class="st0" d="M356.2,254.4c-1.4,1.2-3.2,1.9-5,1.8c-4.2,0-6-4.7-6-8.3c0-3.6,2.1-6.8,6-6.8
		c1.9,0.1,3.7,0.9,5,2.2V254.4 M362.5,255c-0.5,0.3-1.2,0.5-1.8,0.5c-0.9,0-1.4-0.6-1.4-3.2v-18.3c0-3.9,0-6.7,0.1-7.6h-0.4
		c-1.9,1.1-3.9,2.1-5.9,2.9v1.4c0.5-0.2,1.1-0.4,1.7-0.4c1,0,1.5,0.8,1.5,2v8.8c-1.5-0.8-3.2-1.2-4.9-1.2c-5.2,0-9.2,4.5-9.2,9.8
		c0,6,4.1,8.8,7.8,8.8c2.3-0.1,4.6-1,6.3-2.6c0,1,0.3,2,0.8,2.8c2-1,3.8-1.8,5.4-2.4L362.5,255z"/>
  </g>
</svg>
